HIERARCHY
ROOT Hips
{
	OFFSET 0.000000 0.000000 0.000000
	CHANNELS 6 Xposition Yposition Zposition Zrotation Yrotation Xrotation 
	JOINT LHipJoint
	{
		OFFSET 0.000000 0.000000 0.000000
		CHANNELS 3 Zrotation Yrotation Xrotation
		JOINT LeftUpLeg
		{
			OFFSET 1.363060 -1.794630 0.839290
			CHANNELS 3 Zrotation Yrotation Xrotation
			JOINT LeftLeg
			{
				OFFSET 2.448110 -6.726130 0.000000
				CHANNELS 3 Zrotation Yrotation Xrotation
				JOINT LeftFoot
				{
					OFFSET 2.562200 -7.039590 0.000000
					CHANNELS 3 Zrotation Yrotation Xrotation
					JOINT LeftToeBase
					{
						OFFSET 0.157640 -0.433110 2.322550
						CHANNELS 3 Zrotation Yrotation Xrotation
						End Site
						{
							OFFSET 0.000000 0.000000 0.000000
						}
					}
				}
			}
		}
	}
	JOINT RHipJoint
	{
		OFFSET 0.000000 0.000000 0.000000
		CHANNELS 3 Zrotation Yrotation Xrotation
		JOINT RightUpLeg
		{
			OFFSET -1.305520 -1.794630 0.839290
			CHANNELS 3 Zrotation Yrotation Xrotation
			JOINT RightLeg
			{
				OFFSET -2.542530 -6.985550 0.000000
				CHANNELS 3 Zrotation Yrotation Xrotation
				JOINT RightFoot
				{
					OFFSET -2.568260 -7.056230 0.000000
					CHANNELS 3 Zrotation Yrotation Xrotation
					JOINT RightToeBase
					{
						OFFSET -0.164730 -0.452590 2.363150
						CHANNELS 3 Zrotation Yrotation Xrotation
						End Site
						{
							OFFSET 0.000000 0.000000 0.000000
						}
					}
				}
			}
		}
	}
}
MOTION
Frames: 22
Frame Time: 0.008333
3.727275 17.461283 2.261412 147.013450 -88.598477 -130.815838 -10.064132 1.449225 -0.272087 -10.227177 3.481948 -9.825406 -2.506125 -0.712330 6.616902 0.316760 1.638226 -2.773808 0.235501 -0.000000 -39.464900 9.817226 0.181344 -1.624187 9.183704 -6.586428 -40.608922 1.409273 -3.300104 41.074951 -1.347035 -5.431751 -3.749936 -0.741200 0.000000 -40.137900
3.514967 17.440787 2.236742 138.619789 -88.858091 -122.433094 -9.972032 1.559572 -0.398138 -10.074851 3.853669 -8.693723 -2.551790 -0.716538 6.052995 0.241372 1.046711 -2.614216 0.197900 0.000000 -40.437900 9.809710 0.342696 -1.390537 9.075591 -6.242319 -41.019513 1.574646 -3.042777 38.026845 -1.392214 -5.651066 -3.316462 -0.861500 0.000000 -40.297001
3.302411 17.413625 2.209936 129.154803 -89.004745 -112.975543 -9.869461 1.686769 -0.522063 -9.945328 4.170618 -7.570876 -2.596846 -0.711383 5.550242 0.179952 0.511462 -2.561009 0.159100 -0.000000 -41.402600 9.820238 0.533823 -1.150375 8.892693 -5.895750 -41.336516 1.721437 -2.745661 34.810324 -1.426201 -5.852044 -2.720332 -1.006200 0.000000 -40.345200
3.089344 17.380030 2.181253 119.737277 -89.028603 -103.560066 -9.780117 1.820462 -0.642234 -9.848971 4.430145 -6.451691 -2.639775 -0.700665 5.098583 0.130715 0.035221 -2.606187 0.122099 0.000000 -42.372601 9.831634 0.738677 -0.904375 8.631313 -5.559837 -41.577408 1.855764 -2.413270 31.437619 -1.437081 -5.979936 -1.984917 -1.164500 -0.000000 -40.274000
2.875520 17.340449 2.150973 111.423273 -88.943976 -95.242025 -9.712307 1.948477 -0.760060 -9.790292 4.631349 -5.329760 -2.680139 -0.689297 4.689875 0.090922 -0.385355 -2.730928 0.089300 -0.000000 -43.368300 9.838344 0.939441 -0.650861 8.291000 -5.249434 -41.761168 1.985056 -2.052678 27.921789 -1.413937 -5.984437 -1.133038 -1.321100 0.000000 -40.136999
2.660483 17.295315 2.119302 104.724902 -88.775444 -88.528077 -9.660181 2.065072 -0.877114 -9.768003 4.779092 -4.208529 -2.718764 -0.680109 4.322222 0.057837 -0.759530 -2.912681 0.061400 0.000000 -44.410000 9.846170 1.127723 -0.386895 7.876251 -4.973452 -41.907794 2.114179 -1.669466 24.281334 -1.348010 -5.824822 -0.186706 -1.457300 0.000000 -40.038101
2.444111 17.245297 2.086486 99.647095 -88.544624 -83.424798 -9.615433 2.170377 -0.994435 -9.778503 4.882338 -3.090967 -2.756475 -0.673047 3.993693 0.029316 -1.096656 -3.123770 0.038800 0.000001 -45.513400 9.862581 1.304400 -0.112548 7.392891 -4.737083 -42.029035 2.244531 -1.267544 20.541541 -1.233606 -5.472399 0.831217 -1.552899 -0.000000 -40.100100
2.226134 17.191057 2.052717 95.951367 -88.267147 -79.696619 -9.571643 2.267685 -1.112353 -9.819127 4.948003 -1.972143 -2.793362 -0.666543 3.697392 0.004056 -1.400269 -3.330733 0.021200 -0.000000 -46.684300 9.892452 1.475233 0.167208 6.846691 -4.545848 -42.126491 2.375071 -0.851350 16.737887 -1.069073 -4.910696 1.891953 -1.587500 0.000000 -40.429500
2.005612 17.136911 2.019402 75.701139 -87.732789 -59.391175 -9.692065 2.408485 -0.990482 -9.745493 4.096390 -1.125858 -2.781689 -0.605054 3.791371 -0.004713 -1.648718 -3.698452 0.006399 -0.000000 -47.836200 9.807968 1.730693 0.198850 6.511611 -5.469087 -42.205608 2.617896 -0.399810 12.894816 -0.792800 -3.884256 2.911791 -1.486500 0.000000 -41.121900
1.784114 17.076302 1.983623 75.720147 -87.360663 -59.392725 -9.639291 2.490512 -1.112973 -9.849366 4.108654 0.013200 -2.818910 -0.595608 3.569641 -0.028704 -1.908419 -3.815649 -0.003700 -0.000000 -49.106900 9.865080 1.906474 0.461324 5.866139 -5.415684 -42.258052 2.745284 0.019623 9.150630 -0.541290 -2.883664 3.918343 -1.342000 -0.000001 -42.152400
1.560607 17.013425 1.947011 75.894164 -86.971240 -59.568336 -9.581653 2.578108 -1.232379 -9.972056 4.106835 1.154991 -2.855087 -0.577439 3.398827 -0.052377 -2.151224 -3.859378 -0.012500 0.000000 -50.401199 9.928878 2.098385 0.700010 5.199368 -5.432359 -42.292791 2.861775 0.427327 5.554133 -0.263182 -1.694495 4.810351 -1.103000 0.000001 -43.481200
1.334815 16.948951 1.909613 76.055860 -86.569310 -59.757603 -9.522347 2.673072 -1.347583 -10.100740 4.104694 2.290828 -2.889809 -0.547836 3.301272 -0.077015 -2.389578 -3.824528 -0.021600 -0.000000 -51.702900 9.990893 2.306323 0.905637 4.540794 -5.528678 -42.322233 2.966863 0.811422 2.208353 0.027861 -0.343382 5.508708 -0.777200 0.000001 -44.975000
1.107218 16.883453 1.871665 76.215534 -86.165360 -59.990590 -9.457945 2.773987 -1.459316 -10.232559 4.080332 3.461027 -2.919100 -0.506583 3.248576 -0.098913 -2.584163 -3.696754 -0.030799 0.000000 -52.996400 10.044560 2.530630 1.062166 3.923423 -5.713059 -42.348010 3.060057 1.158732 -0.770851 0.318963 1.141750 5.931465 -0.383200 0.000000 -46.489300
0.876910 16.817871 1.833247 76.209116 -85.769545 -60.085727 -9.398366 2.880535 -1.563947 -10.340587 4.060602 4.605114 -2.943193 -0.451483 3.297357 -0.120418 -2.766122 -3.498750 -0.041900 0.000000 -54.288200 10.080227 2.758888 1.181183 3.376552 -5.958208 -42.402568 3.142131 1.465743 -3.308441 0.592875 2.677224 6.028512 0.033200 -0.000000 -47.843000
0.643637 16.752996 1.794444 76.030220 -85.393849 -60.023790 -9.347403 2.990334 -1.659480 -10.408891 4.046668 5.690810 -2.960440 -0.382456 3.468882 -0.140444 -2.931313 -3.248816 -0.054900 -0.000000 -55.596500 10.094564 2.979365 1.274409 2.908811 -6.222401 -42.504873 3.210976 1.729902 -5.349191 0.833494 4.157745 5.779035 0.417600 0.000000 -48.884400
0.407304 16.689625 1.755517 75.749844 -85.052458 -59.866533 -9.306072 3.098858 -1.744157 -10.432315 4.011211 6.725218 -2.966292 -0.301724 3.738964 -0.154545 -3.036561 -2.950622 -0.068300 -0.000000 -56.959900 10.086764 3.179335 1.349922 2.515142 -6.453580 -42.648856 3.263039 1.948274 -6.865637 1.027202 5.467335 5.207776 0.719999 0.000000 -49.553100
0.167415 16.628427 1.716626 75.384335 -84.754957 -59.608354 -9.278554 3.203153 -1.813936 -10.403535 3.944836 7.675389 -2.958714 -0.210810 4.115615 -0.161156 -3.070189 -2.618831 -0.080499 -0.000000 -58.440001 10.059044 3.343896 1.425362 2.172104 -6.590545 -42.836939 3.294756 2.119521 -7.860130 1.162117 6.480327 4.381254 0.903700 0.000000 -49.826900
-0.076855 16.569967 1.677582 74.946745 -84.506658 -59.230125 -9.266390 3.302274 -1.864200 -10.322473 3.835703 8.495450 -2.936932 -0.111473 4.612960 -0.159399 -3.026958 -2.265715 -0.089900 -0.000000 -60.113101 10.007363 3.461136 1.528037 1.828007 -6.545074 -43.366803 3.313626 2.189421 -7.766658 1.201733 7.104437 3.059450 0.957400 0.000000 -49.723800
-0.325766 16.514596 1.638570 74.482525 -84.308867 -58.775096 -9.273913 3.393924 -1.885590 -10.194813 3.662304 9.187762 -2.897408 -0.005659 5.210371 -0.147250 -2.884384 -1.879687 -0.094101 -0.000000 -62.068000 9.955251 3.518677 1.651054 1.491384 -6.342942 -43.630248 3.295477 2.262421 -7.826231 1.200339 7.249571 2.055349 0.897699 -0.000000 -49.335001
-0.579731 16.462539 1.599775 74.015374 -84.168905 -58.256737 -9.302990 3.477668 -1.874744 -10.020661 3.415146 9.744875 -2.837913 0.105139 5.895602 -0.124503 -2.639735 -1.442482 -0.091200 -0.000000 -64.389701 9.902052 3.510537 1.800885 1.147855 -5.950845 -43.720636 3.240736 2.316739 -7.878975 1.151048 6.904744 1.382876 0.754600 0.000000 -48.765500
-0.838974 16.413942 1.561387 73.561660 -84.098105 -57.678500 -9.353349 3.554310 -1.833288 -9.796530 3.093521 10.155320 -2.757088 0.220068 6.663169 -0.092296 -2.305491 -0.928395 -0.080000 -0.000000 -67.132999 9.831869 3.435863 1.992098 0.774929 -5.309091 -44.150929 3.170485 2.258166 -6.944217 1.007689 6.126031 0.583432 0.559001 0.000000 -48.124601
-1.103474 16.368911 1.523952 73.094672 -84.107704 -57.024298 -9.433094 3.624367 -1.761592 -9.501374 2.723151 10.418040 -2.652434 0.340073 7.518279 -0.054019 -1.919018 -0.304429 -0.061700 0.000000 -70.308300 9.748221 3.292944 2.210945 0.422694 -4.461221 -44.679740 3.076955 2.128994 -5.560234 0.804836 4.973816 0.061412 0.331900 0.000001 -47.520801
